<svg id="line" height="512" viewBox="0 0 64 64" width="512" xmlns="http://www.w3.org/2000/svg"><path d="m41.39 33.43v5.66c-2.46-.8-3.07-1.63-3.07-3s1.02-2.47 3.07-2.66zm2.53 10.11v5.82c2-.22 3.17-1.25 3.17-2.78s-.71-2.28-3.17-3.04zm19.08-1.54a21 21 0 1 1 -21-21 21 21 0 0 1 21 21zm-12.14 4.35c0-3.42-2.08-5.37-6.94-6.59v-6.14a11.08 11.08 0 0 1 3.29 1.38 1.76 1.76 0 1 0 1.79-3 11.55 11.55 0 0 0 -5-1.76v-.71a1.4 1.4 0 0 0 -2.79 0v.68c-4 .32-6.72 2.68-6.72 6.11 0 3.61 2.18 5.37 6.85 6.59v6.3a11.26 11.26 0 0 1 -4.73-2.14 1.77 1.77 0 1 0 -2 2.94 13.88 13.88 0 0 0 6.56 2.5v2a1.4 1.4 0 0 0 2.79 0v-1.92c4.15-.38 6.9-2.72 6.9-6.24z" fill="#c4a2fc"/><path d="m50.45 29.11a1 1 0 0 0 -1.05.09l-4.73 3.55-4.74-3.55a1 1 0 0 0 -1.2 0l-3.73 2.8v-30a1 1 0 0 0 -1.6-.8l-4.74 3.55-4.74-3.55a1 1 0 0 0 -1.19 0l-4.73 3.55-4.74-3.55a1 1 0 0 0 -1.2 0l-4.73 3.55-4.73-3.55a1 1 0 0 0 -1.6.8v34a9 9 0 0 0 9 9h32a9 9 0 0 0 9-9v-6a1 1 0 0 0 -.55-.89zm-40.45 13.89a7 7 0 0 1 -7-7v-32l3.73 2.8a1 1 0 0 0 1.2 0l4.73-3.55 4.73 3.55a1 1 0 0 0 1.2 0l4.74-3.55 4.73 3.55a1 1 0 0 0 1.2 0l3.74-2.8v32a9 9 0 0 0 3.35 7zm39-7a7 7 0 0 1 -14 0v-1.5l4.33-3.25 4.74 3.55a1 1 0 0 0 1.2 0l3.73-2.8zm-37-21h-4a1 1 0 0 1 0-2h4a1 1 0 0 1 0 2zm16 0h-12a1 1 0 0 1 0-2h12a1 1 0 0 1 0 2zm-16 7h-4a1 1 0 0 1 0-2h4a1 1 0 0 1 0 2zm16 0h-12a1 1 0 0 1 0-2h12a1 1 0 0 1 0 2zm-16 7h-4a1 1 0 0 1 0-2h4a1 1 0 0 1 0 2zm16 0h-12a1 1 0 0 1 0-2h12a1 1 0 0 1 0 2zm-16 7h-4a1 1 0 0 1 0-2h4a1 1 0 0 1 0 2zm16 0h-12a1 1 0 0 1 0-2h12a1 1 0 0 1 0 2z" fill="#151a6a"/></svg>