<svg id="Layer_2" height="512" viewBox="0 0 128 128" width="512" xmlns="http://www.w3.org/2000/svg" data-name="Layer 2"><rect fill="#06daf7" height="24.333" rx="6" width="31.083" x="95.167" y="51.833"/><path d="m120.25 51.833h-19.083a6 6 0 0 0 -5.742 4.261 6 6 0 0 1 1.739-.258h19.083a6 6 0 0 1 6 6v12.334a6 6 0 0 1 -.258 1.739 6 6 0 0 0 4.261-5.742v-12.334a6 6 0 0 0 -6-6z" fill="#06daf7"/><path d="m118.38 29.33v22.5h-17.21a6 6 0 0 0 -6 6v12.34a6 6 0 0 0 6 6h17.21v22.5a6 6 0 0 1 -6 6h-104.63a6 6 0 0 1 -6-6v-69.34a6 6 0 0 1 6-6h104.63a6 6 0 0 1 6 6z" fill="#284cb2"/><path d="m104.667 68.957a1.75 1.75 0 0 1 -1.75-1.75v-6.54a1.75 1.75 0 1 1 3.5 0v6.54a1.75 1.75 0 0 1 -1.75 1.75z" fill="#e8f3fc"/><path d="m1.75 31.75h116.63v3.5h-116.63z" fill="#1d3ba8"/><path d="m1.75 92.75h116.63v3.5h-116.63z" fill="#1d3ba8"/><g fill="#e8f3fc"><path d="m42.65 52.9a1.714 1.714 0 0 1 -1.34.63 1.74 1.74 0 0 1 -.77-.18 1.461 1.461 0 0 1 -.35-.22l-8.57-7.13h-29.87v-3.5h30.5a1.766 1.766 0 0 1 1.12.4l9.05 7.53a2.193 2.193 0 0 1 .3.31 1.759 1.759 0 0 1 -.07 2.16z"/><path d="m23.99 54.12a1.731 1.731 0 0 1 -1.34 1.7 1.4 1.4 0 0 1 -.41.06h-20.49v-3.5h20.49a1.4 1.4 0 0 1 .41.06 1.717 1.717 0 0 1 1.34 1.68z"/><path d="m64.02 64a1.71 1.71 0 0 1 -1.31 1.68 1.309 1.309 0 0 1 -.44.07h-60.52v-3.5h60.52a1.306 1.306 0 0 1 .39.05 1.73 1.73 0 0 1 1.36 1.7z"/><path d="m15.99 73.88a1.717 1.717 0 0 1 -1.34 1.68 1.4 1.4 0 0 1 -.41.06h-12.49v-3.5h12.49a1.422 1.422 0 0 1 .42.06 1.75 1.75 0 0 1 1.33 1.7z"/><path d="m41.03 77.37a1.853 1.853 0 0 1 -.25.32l-7.29 7.3a1.756 1.756 0 0 1 -1.24.51h-30.5v-3.5h29.77l6.79-6.78a1.308 1.308 0 0 1 .33-.25 1.74 1.74 0 0 1 2.39 2.4z"/></g><circle cx="44.125" cy="54.125" fill="#ff6ca8" r="3.667"/><circle cx="25.909" cy="54.125" fill="#ff6ca8" r="3.667"/><circle cx="17.902" cy="73.875" fill="#ff6ca8" r="3.667"/><circle cx="42.146" cy="73.875" fill="#ff6ca8" r="3.667"/><circle cx="65.941" cy="63.937" fill="#ff6ca8" r="3.667"/></svg>