<svg id="_x33_0" enable-background="new 0 0 64 64" height="512" viewBox="0 0 64 64" width="512" xmlns="http://www.w3.org/2000/svg" xmlns:xlink="http://www.w3.org/1999/xlink"><linearGradient id="SVGID_1_" gradientUnits="userSpaceOnUse" x1="32" x2="32" y1="63" y2="1"><stop offset="0" stop-color="#9f2fff"/><stop offset="1" stop-color="#0bb1d3"/></linearGradient><path d="m40 49c-1.654 0-3 1.346-3 3s1.346 3 3 3 3-1.346 3-3-1.346-3-3-3zm0 4c-.552 0-1-.448-1-1s.448-1 1-1 1 .448 1 1-.448 1-1 1zm8-4c-1.654 0-3 1.346-3 3s1.346 3 3 3 3-1.346 3-3-1.346-3-3-3zm0 4c-.552 0-1-.448-1-1s.448-1 1-1 1 .448 1 1-.448 1-1 1zm8-4c-1.654 0-3 1.346-3 3s1.346 3 3 3 3-1.346 3-3-1.346-3-3-3zm0 4c-.552 0-1-.448-1-1s.448-1 1-1 1 .448 1 1-.448 1-1 1zm4-8h-25v-16c0-1.103-.897-2-2-2v-11c0-8.271-6.729-15-15-15s-15 6.729-15 15v11c-1.103 0-2 .897-2 2v32c0 1.103.897 2 2 2h30c1.103 0 2-.897 2-2v-2h25c1.654 0 3-1.346 3-3v-8c0-1.654-1.346-3-3-3zm-55-29c0-7.168 5.832-13 13-13s13 5.832 13 13v11h-4v-11c0-4.963-4.037-9-9-9s-9 4.037-9 9v11h-4zm20 11h-14v-11c0-3.859 3.141-7 7-7s7 3.141 7 7zm-13.965 15.123v3.877c-1.103 0-2-.897-2-2s.897-2 2-2h.01c-.001.042-.01.081-.01.123zm.489-2.123h-.488c-.605 0-1.174.145-1.689.387l-.17-.339c-.093-.187-.142-.394-.142-.601 0-.512.284-.972.742-1.2l1.6-.8-1.191-2.383c-.099-.196-.15-.417-.15-.638 0-.787.64-1.427 1.427-1.427h10.551c2.77 0 5.022 2.253 5.022 5.022 0 .541-.087 1.075-.257 1.588l-.23.691c-.468-.19-.978-.3-1.514-.3h-.78c-.549-.609-1.337-1-2.22-1h-4c-.552 0-1-.448-1-1s.448-1 1-1h1v-2h-1c-1.374 0-2.535.929-2.89 2.191l-.322.081c-1.496.375-2.676 1.403-3.299 2.728zm13.511 2c1.103 0 2 .897 2 2s-.897 2-2 2zm-12 .123c0-1.374.928-2.567 2.258-2.907.467 1.051 1.52 1.784 2.742 1.784h4c.552 0 1 .448 1 1v4c0 2.757-2.243 5-5 5s-5-2.243-5-5zm2.31 10.338c.829.346 1.737.539 2.69.539.941 0 1.838-.189 2.658-.528.39 1.47 1.565 2.599 3.072 2.901l2.412.482c2.548.51 4.44 2.617 4.757 5.145h-25.834c.317-2.528 2.209-4.635 4.758-5.145l2.412-.482c1.512-.303 2.69-1.437 3.075-2.912zm17.619 8.539c-.324-3.482-2.912-6.409-6.395-7.105l-2.412-.482c-.794-.159-1.41-.775-1.569-1.568l-.091-.455c1.052-.872 1.842-2.047 2.243-3.389h.295c2.206 0 4-1.794 4-4 0-.901-.31-1.724-.815-2.393l.455-1.364c.238-.717.359-1.464.359-2.22 0-3.872-3.15-7.022-7.022-7.022h-10.55c-1.89 0-3.427 1.537-3.427 3.427 0 .53.126 1.061.362 1.533l.299.599c-1.029.597-1.661 1.686-1.661 2.889 0 .515.122 1.031.353 1.494l.382.763c-.46.648-.735 1.437-.735 2.293 0 2.206 1.794 4 4 4h.295c.397 1.328 1.177 2.492 2.214 3.362l-.096.481c-.159.794-.774 1.41-1.569 1.569l-2.412.482c-3.483.697-6.072 3.624-6.397 7.106h-.07v-32h30l.002 32zm28.036-5c0 .552-.448 1-1 1h-25v-10h25c.552 0 1 .448 1 1zm-10-42c0-2.757-2.243-5-5-5s-5 2.243-5 5 2.243 5 5 5 5-2.243 5-5zm-8 0c0-1.654 1.346-3 3-3s3 1.346 3 3-1.346 3-3 3-3-1.346-3-3zm12 0c0-4.963-4.037-9-9-9s-9 4.037-9 9c0 3.91 2.51 7.236 6 8.475v18.525c0 1.103.897 2 2 2h8c1.103 0 2-.897 2-2v-4h-1c-.552 0-1-.448-1-1s.448-1 1-1h1v-4c0-1.103-.897-2-2-2h-4v-6.525c3.49-1.239 6-4.565 6-8.475zm-16 0c0-3.859 3.141-7 7-7s7 3.141 7 7-3.141 7-7 7-7-3.141-7-7zm14 17v2.171c-1.164.413-2 1.525-2 2.829s.836 2.416 2 2.829v2.171h-4v-10zm-6 10h-2v-18.059c.329.037.662.059 1 .059s.671-.022 1-.059z" fill="url(#SVGID_1_)"/></svg>