<svg id="_x33_0" enable-background="new 0 0 64 64" height="512" viewBox="0 0 64 64" width="512" xmlns="http://www.w3.org/2000/svg" xmlns:xlink="http://www.w3.org/1999/xlink"><linearGradient id="SVGID_1_" gradientUnits="userSpaceOnUse" x1="32" x2="32" y1="63" y2="1"><stop offset="0" stop-color="#9f2fff"/><stop offset="1" stop-color="#0bb1d3"/></linearGradient><path d="m48 37c-3.86 0-7 3.141-7 7v4c0 3.859 3.14 7 7 7s7-3.141 7-7v-4c0-3.859-3.14-7-7-7zm5 11c0 2.757-2.243 5-5 5-1.892 0-3.542-1.056-4.391-2.609.711.388 1.526.609 2.391.609 2.757 0 5-2.243 5-5v-2c0-1.654-1.346-3-3-3s-3 1.346-3 3v3h2v-3c0-.552.449-1 1-1s1 .448 1 1v2c0 1.654-1.346 3-3 3s-3-1.346-3-3v-2c0-2.757 2.243-5 5-5s5 2.243 5 5zm-16 11h22v-26h-22zm2-24h18v22h-18zm-8-32v-2h-30v30h14v32h48v-49.414l-10.586-10.586zm22 3.414 6.586 6.586h-6.586zm-50-3.414h26v26h-2.025c-.132-2.847-2.281-5.261-5.126-5.669l-2.095-.299-.363-1.088c1.213-.835 2.101-2.104 2.446-3.581l1.333-2.581c.543-1.05.83-2.23.83-3.413 0-4.1-3.335-7.436-7.436-7.436h-1.129c-4.1.002-7.435 3.338-7.435 7.437 0 1.183.287 2.363.83 3.413l1.333 2.581c.346 1.477 1.233 2.746 2.446 3.581l-.363 1.088-2.095.299c-2.845.407-4.994 2.821-5.126 5.668h-2.025zm7.374 11.341c-.243-.627-.374-1.297-.374-1.971 0-2.997 2.438-5.436 5.436-5.436h1.129c2.997.001 5.435 2.439 5.435 5.436 0 .656-.122 1.311-.354 1.923-.425-.805-1.199-1.4-2.153-1.558l-1.954-.326c-1.099-.183-2-.953-2.353-2.011l-.238-.715-1.897.633.238.715c.097.291.219.568.363.831l-1.138.455c-.971.388-1.72 1.12-2.14 2.024zm1.626 1.69c0-.822.493-1.552 1.257-1.856l1.786-.715c.626.467 1.366.788 2.168.922l1.954.326c.484.08.835.495.835.986v1.304c0 2.206-1.794 4.001-4 4.002-2.206-.001-4-1.796-4-4.002zm3.998 6.969h.004c.541 0 1.062-.079 1.561-.214l.362 1.087c-.399.693-1.118 1.127-1.925 1.127s-1.526-.434-1.925-1.127l.362-1.087c.499.135 1.02.214 1.561.214zm-3.57 2.026c.772 1.224 2.101 1.974 3.572 1.974s2.8-.75 3.572-1.974l1.994.285c1.867.267 3.28 1.83 3.409 3.688h-17.95c.129-1.858 1.543-3.421 3.409-3.688zm4.572 35.974v-30h14v-26h20v10h10v46zm2-22h16v-6h-16zm2-4h12v2h-12zm2 8h-4v-2h4zm2-2h10v2h-10zm-6 4h16v2h-16zm0 10h2v2h-2zm4 0h2v2h-2zm4 0h2v2h-2zm-8-6h16v2h-16zm24-38h-10v-2h10zm0 4h-10v-2h10zm-10 2h26v2h-26zm0 4h26v2h-26zm0 6h2v2h-2zm6 0v2h-2v-2zm4 0v2h-2v-2z" fill="url(#SVGID_1_)"/></svg>